PathFileType	4	(X/Y/Z)	OpenSim_Sub09_EMGStiffKnee_Gyro.trc
DataRate	CameraRate	NumFrames	NumMarkers	Units	OrigDataRate	OrigDataStartFrame	OrigNumFrames
100	100	27	8	m	100	3793	7584
Frame#	Time	torso_imu_offset_imu	pelvis_imu_offset_imu	tibia_r_imu_offset_imu	femur_r_imu_offset_imu	tibia_l_imu_offset_imu	femur_l_imu_offset_imu	toes_r_imu_offset_imu	toes_l_imu_offset_imu
				X1	Y1	Z1	X2	Y2	Z2	X3	Y3	Z3	X4	Y4	Z4	X5	Y5	Z5	X6	Y6	Z6	X7	Y7	Z7	X8		Y8	Z8	

3793	37.92000000	0.39579644	-0.37862728	0.38279885	0.69890033	0.24503986	0.24988505	-0.07016289	1.46327540	2.95907979	0.56068017	-0.27771229	-0.01525879	0.83231625	0.01665903	0.80856971	0.71958157	-0.01781040	0.58912664	0.85676992	2.44689039	0.51843143	-0.30774380	0.01662043	0.55792554
3794	37.93000000	0.43987020	-0.37641925	0.40299756	0.72660053	0.24804434	0.24734131	0.08625786	1.35742196	2.90232067	0.74282266	-0.23805203	-0.05444158	0.80350786	0.02692868	0.88197598	0.77194421	0.04129815	0.56296629	0.72213299	2.19008306	0.43078768	-0.27938325	-0.01195939	0.58458933
3795	37.94000000	0.48667910	-0.37112727	0.43991782	0.76549919	0.24266005	0.24904747	0.10373703	1.10344879	2.80250724	0.95591760	-0.15982060	-0.07490470	0.78151270	0.02431455	0.93614314	0.81505783	0.08605852	0.52579234	0.53851329	1.94490363	0.40695667	-0.26919524	-0.05568295	0.60750347
3796	37.95000000	0.51762411	-0.36031609	0.47790533	0.78536591	0.21853528	0.25122075	0.15047193	0.87583032	2.61914183	1.16518479	-0.05744162	-0.08244173	0.76228545	0.03255749	0.95287352	0.83293960	0.10779124	0.49843401	0.22331652	1.83928184	0.48980730	-0.26993852	-0.12485577	0.62830040
3797	37.96000000	0.55092505	-0.34778966	0.51438004	0.78180448	0.18821186	0.24565580	0.21525292	0.70506014	2.29753273	1.35036400	0.02417966	-0.06556724	0.69127420	0.04831049	0.97631715	0.80032902	0.15420549	0.48884556	-0.22926583	1.78539878	0.63737378	-0.21880875	-0.19789358	0.61591447
3798	37.97000000	0.56073050	-0.33053080	0.55916589	0.78258167	0.13028372	0.24832807	0.16454607	0.53601614	1.85672215	1.53266333	0.09908571	-0.04168204	0.66038067	0.06602198	1.02181179	0.73075788	0.20761931	0.49330551	-0.63854117	1.61454116	0.75017520	-0.15453183	-0.31402534	0.58552448
3799	37.98000000	0.56692297	-0.29073988	0.58789350	0.77831399	0.04973903	0.23678701	0.16670478	0.37827648	1.37945106	1.73995454	0.18433976	0.04070747	0.70104518	0.12469777	1.09090542	0.62795864	0.25559698	0.51438552	-0.86061988	1.32015808	0.75105795	-0.14301769	-0.43102090	0.52964865
3800	37.99000000	0.55435836	-0.25371341	0.60740423	0.79166893	-0.04474774	0.20978867	0.17573340	0.23613483	0.98548537	1.91069992	0.27386887	0.16992350	0.73993188	0.17699228	1.15423317	0.49453359	0.31769123	0.55859913	-0.81814562	0.99777422	0.67036277	-0.05888048	-0.56500219	0.49996836
3801	38	0.53938165	-0.20014247	0.62137009	0.83160771	-0.12222972	0.18560251	0.14646003	0.08142652	0.67752438	1.99720382	0.33713992	0.31836731	0.69921663	0.18877421	1.18460355	0.37924304	0.38484790	0.61012263	-0.58286883	0.73006922	0.57800780	-0.02920061	-0.67427013	0.48071880
3802	38.01000000	0.52279845	-0.14208098	0.62277831	0.86235995	-0.18524952	0.14628789	0.22230898	-0.07015424	0.36059418	1.97056463	0.37065778	0.47595186	0.74583983	0.24985875	1.23753420	0.32007111	0.43823056	0.64433738	-0.21276514	0.48002617	0.47250043	0.00334811	-0.79761474	0.48248041
3803	38.02000000	0.51533445	-0.07532281	0.61928955	0.90855112	-0.26292160	0.11133401	0.39374123	-0.22575325	-0.00217714	1.80066838	0.26640431	0.66655659	0.72319932	0.26739159	1.31906942	0.27886646	0.48568346	0.68099744	0.13811816	0.20535012	0.34243490	0.00740471	-0.89854918	0.50031835
3804	38.03000000	0.52335332	0.00823919	0.61697486	0.96443864	-0.34550405	0.08297367	0.65006872	-0.36420566	-0.38293510	1.55536727	0.00951207	0.81513307	0.84368280	0.27973547	1.35786768	0.28912348	0.51126636	0.71779406	0.35456994	-0.12800952	0.21949314	0.00081842	-0.99541240	0.54784332
3805	38.04000000	0.55022014	0.10416417	0.62084851	1.07061008	-0.42996722	0.05233698	0.91314841	-0.48840240	-0.73027633	1.26008640	-0.33355502	0.81511544	0.93320909	0.34702312	1.37525577	0.34079476	0.50304085	0.75302185	0.32458916	-0.31559667	0.22107715	-0.01714908	-1.10794622	0.62175161
3806	38.05000000	0.59399069	0.19973546	0.62638239	1.18480805	-0.51056422	0.00066950	1.11394014	-0.59020501	-0.97913310	0.75652752	-0.70193608	0.71733414	0.96571539	0.34428926	1.41779937	0.42318845	0.47700544	0.78997865	0.11075517	-1.05438069	0.02834671	0.00244174	-1.22516028	0.67873663
3807	38.06000000	0.64169179	0.28494832	0.62572486	1.39736258	-0.47587382	-0.02665836	1.64137761	-0.81167263	-1.11612420	0.16892124	-1.10725548	0.66096658	1.08710080	0.35388886	1.51926471	0.58535971	0.43601325	0.81695596	-1.29449152	-2.39177271	-0.28239532	0.04804521	-1.36132863	0.72780854
3808	38.07000000	0.67254773	0.33957657	0.61870136	1.50698974	-0.24865202	0.11233194	1.76646123	-1.83942345	-1.03243467	-0.09055183	-1.40132493	0.58861966	1.20718159	0.40127015	1.65586025	0.81438311	0.44508995	0.82218923	-0.55440106	-7.23870551	-0.98446259	0.05747177	-1.53142532	0.75565246
3809	38.08000000	0.68553459	0.31950764	0.60838366	1.25642011	0.04803515	0.39599782	-0.92492927	-3.16989254	-0.68372101	0.06371803	-1.55695891	0.31555056	1.15452339	0.48371263	1.73483335	0.99388001	0.53611560	0.77184941	1.49286178	-6.76237861	-1.66580009	0.02585881	-1.75300044	0.80605464
3810	38.09000000	0.60007375	0.30311483	0.61219127	0.75357225	0.30714579	0.73750477	-3.01634334	-1.68139128	-0.59694047	-0.34042586	-1.43691971	-0.32759453	1.03822984	0.52295667	1.72759357	1.00272623	0.61661672	0.62975928	-0.15405540	-3.53580025	-1.17958936	-0.04627988	-2.01760493	0.91719629
3811	38.10000000	0.36493837	0.28595342	0.57220045	0.27215352	0.34276138	0.89756296	1.01388841	0.26020984	-1.79613003	-1.32285042	-0.89412273	-1.19658201	0.89205131	0.49773157	1.73251889	0.86049013	0.58324687	0.44339084	0.16492325	-3.74562196	-0.91365882	-0.07208615	-2.31936347	1.08406850
3812	38.11000000	0.12779301	0.25010183	0.45801511	-0.04047093	0.10385043	0.55127962	4.88357068	0.50887529	-2.47264730	-1.70678008	0.03562186	-0.87095623	0.68470005	0.46626852	1.72351185	0.59218862	0.50117522	0.28122057	-0.35447626	-3.00570609	-0.72186127	-0.14016959	-2.62607693	1.25884655
3813	38.12000000	-0.05967981	0.18921321	0.38971436	-0.17990816	-0.09599217	-0.01624073	5.97546820	0.43981009	-2.13116632	-1.97087462	-0.12238020	0.69231358	0.52422962	0.40708946	1.71264389	0.38426014	0.45528121	0.18620330	-0.35772326	-2.70307487	-0.74583591	-0.10406315	-2.96934799	1.44543752
3814	38.13000000	-0.18444617	0.10054651	0.28347908	-0.11135642	-0.18042034	-0.44329084	6.08218303	0.56063109	-1.75067981	-1.14466152	-0.87410347	1.54504445	0.44358466	0.33743075	1.72068583	0.39088933	0.51587665	0.10518312	-0.65067560	-2.47667952	-0.60358765	0.11290286	-3.27253516	1.56882026
3815	38.14000000	-0.17062739	-0.00518108	0.15023797	0.00660951	-0.09236908	-0.57824887	5.39861542	0.47355964	-1.37189684	0.36649879	-0.43008556	1.58719458	0.44823286	0.30824272	1.70011209	0.47037929	0.69228475	0.01923416	0.70370634	-1.36031784	-0.45085771	0.17123422	-3.35543441	1.59272609
3816	38.15000000	-0.08288900	-0.13021501	0.07018476	0.00573702	-0.00659236	-0.46056782	3.67090130	-0.11306196	-0.93309108	0.60679455	-0.21398780	1.18659561	0.52386076	0.31699611	1.63452388	0.43864593	0.82579116	-0.02171344	0.50837296	-1.14683602	-0.29611735	-0.00252580	-3.42036530	1.58462392
3817	38.16000000	0.00301528	-0.22761826	0.04552405	0.06666129	-0.00982532	-0.30771441	1.83980873	-0.90225890	-0.93758793	0.09369621	-0.43606125	0.81601646	0.52143583	0.35022576	1.55301485	0.30075095	0.85147571	-0.06955299	0.39655346	-0.72818041	-0.35875441	0.10341800	-3.44613448	1.53507545
3818	38.17000000	-0.03489029	-0.24630860	0.00001673	0.20887171	0.00161309	-0.13626772	0.76188524	-1.54878328	-1.76780481	-0.05931582	-0.47015679	0.34813583	0.31720331	0.34710487	1.52330066	0.31726633	0.74029745	-0.15633403	0.76079307	-0.77681612	-0.38768813	0.22878223	-3.22702910	1.58318572
3819	38.18000000	-0.14064158	-0.18744198	-0.04071178	0.37744737	0.04087408	0.03884592	-0.37888280	-1.96241580	-2.38322512	-0.14038629	-0.64330911	-0.56207787	-0.06308778	0.43615150	1.49014234	0.47523064	0.50111514	-0.24602757	0.64707905	-0.46605408	-0.32414152	0.10021660	-2.98974699	1.67984394
